<?xml version="1.0" standalone="no"?>
<!DOCTYPE svg PUBLIC "-//W3C//DTD SVG 20010904//EN"
 "http://www.w3.org/TR/2001/REC-SVG-20010904/DTD/svg10.dtd">
<svg version="1.0" xmlns="http://www.w3.org/2000/svg"
 width="512.000000pt" height="512.000000pt" viewBox="0 0 512.000000 512.000000"
 preserveAspectRatio="xMidYMid meet">
<metadata>
Created by potrace 1.14, written by Peter Selinger 2001-2017
</metadata>
<g transform="translate(0.000000,512.000000) scale(0.100000,-0.100000)"
fill="#000000" stroke="none">
<path d="M3185 4940 c-11 -4 -29 -18 -40 -30 -18 -20 -20 -36 -19 -142 0 -119
1 -121 28 -144 34 -30 77 -31 112 -1 25 21 27 31 31 116 5 100 0 146 -21 174
-17 22 -65 37 -91 27z"/>
<path d="M4539 4483 c-36 -31 -80 -74 -151 -151 -55 -59 -62 -95 -25 -137 17
-20 32 -27 60 -27 41 0 78 29 199 157 70 74 80 110 42 154 -34 41 -79 42 -125
4z"/>
<path d="M3275 4333 c-196 -20 -419 -109 -575 -229 -101 -77 -226 -217 -286
-320 -10 -17 -16 -15 -80 28 -187 123 -377 181 -589 177 -430 -7 -803 -283
-940 -694 -25 -77 -52 -248 -49 -310 4 -81 16 -157 34 -224 12 -40 19 -75 17
-77 -2 -2 -19 -6 -38 -8 -19 -3 -56 -8 -84 -11 -158 -21 -333 -112 -451 -236
-151 -159 -225 -338 -229 -553 -5 -258 99 -485 296 -651 53 -44 183 -114 256
-138 119 -40 170 -44 506 -46 171 -1 312 -3 314 -5 2 -2 -14 -44 -36 -94 -53
-121 -110 -294 -119 -362 -29 -217 127 -403 339 -402 206 0 355 159 344 366
-4 77 -61 283 -86 311 -5 5 -9 16 -10 25 0 8 -15 47 -33 85 -19 39 -32 71 -31
73 2 2 900 4 1152 2 l62 0 -18 -42 c-29 -68 -70 -219 -74 -273 -11 -144 63
-272 195 -342 47 -25 63 -28 148 -28 79 0 103 4 144 24 118 56 197 177 200
305 2 70 -28 203 -69 304 -10 24 -16 45 -13 47 2 3 134 5 294 7 169 1 312 6
344 13 30 6 57 12 60 12 16 0 123 38 170 61 242 115 421 328 491 587 18 66 22
107 22 230 0 134 -3 159 -26 237 -30 97 -77 201 -122 267 -46 69 -173 194
-241 238 -59 38 -61 40 -49 64 23 44 65 183 79 264 15 80 16 334 2 400 -88
403 -354 715 -729 855 -49 18 -138 41 -217 55 -38 8 -227 12 -275 8z"/>
<path d="M4821 3284 c-40 -17 -58 -71 -37 -112 21 -40 53 -49 171 -48 77 1
107 5 127 18 50 33 45 114 -9 141 -35 18 -210 19 -252 1z"/>
</g>
</svg>
